<mxfile host="drawio-plugin" modified="2023-05-06T20:13:29.633Z" agent="5.0 (Macintosh; Intel Mac OS X 10_15_7) AppleWebKit/537.36 (KHTML, like Gecko) Chrome/104.0.5112.102 Safari/537.36" version="20.5.3" etag="jlQCoBK1s_TefOVofoGy" type="embed"><diagram id="dcUxYthiocH2iOCU6mUF" name="Page-1"><mxGraphModel dx="774" dy="524" grid="1" gridSize="10" guides="1" tooltips="1" connect="1" arrows="1" fold="1" page="1" pageScale="1" pageWidth="850" pageHeight="1100" math="0" shadow="0"><root><mxCell id="0"/><mxCell id="1" parent="0"/><mxCell id="5" value="Fronted" style="shape=umlLifeline;perimeter=lifelinePerimeter;whiteSpace=wrap;html=1;container=1;collapsible=0;recursiveResize=0;outlineConnect=0;fillColor=#ffe6cc;strokeColor=#d79b00;" vertex="1" parent="1"><mxGeometry x="150" y="50" width="100" height="390" as="geometry"/></mxCell><mxCell id="8" value="" style="html=1;points=[];perimeter=orthogonalPerimeter;fillColor=#ffe6cc;strokeColor=#d79b00;" vertex="1" parent="5"><mxGeometry x="45" y="62" width="10" height="98" as="geometry"/></mxCell><mxCell id="6" value="User&lt;br&gt;" style="shape=umlLifeline;participant=umlActor;perimeter=lifelinePerimeter;whiteSpace=wrap;html=1;container=1;collapsible=0;recursiveResize=0;verticalAlign=top;spacingTop=36;outlineConnect=0;fillColor=#ffe6cc;strokeColor=#d79b00;" vertex="1" parent="1"><mxGeometry x="60" y="50" width="20" height="390" as="geometry"/></mxCell><mxCell id="7" value="Testing subsystem" style="shape=umlLifeline;perimeter=lifelinePerimeter;whiteSpace=wrap;html=1;container=1;collapsible=0;recursiveResize=0;outlineConnect=0;fillColor=#ffe6cc;strokeColor=#d79b00;" vertex="1" parent="1"><mxGeometry x="300" y="50" width="100" height="390" as="geometry"/></mxCell><mxCell id="15" value="" style="html=1;points=[];perimeter=orthogonalPerimeter;fillColor=#ffe6cc;strokeColor=#d79b00;" vertex="1" parent="7"><mxGeometry x="44" y="70" width="10" height="70" as="geometry"/></mxCell><mxCell id="20" value="Potvrzení nahrání" style="html=1;verticalAlign=bottom;endArrow=open;dashed=1;endSize=8;rounded=0;" edge="1" parent="7"><mxGeometry relative="1" as="geometry"><mxPoint x="43" y="130" as="sourcePoint"/><mxPoint x="-96" y="130" as="targetPoint"/></mxGeometry></mxCell><mxCell id="21" value="" style="html=1;points=[];perimeter=orthogonalPerimeter;fillColor=#ffe6cc;strokeColor=#d79b00;" vertex="1" parent="7"><mxGeometry x="44" y="150" width="10" height="40" as="geometry"/></mxCell><mxCell id="23" value="" style="html=1;points=[];perimeter=orthogonalPerimeter;fillColor=#ffe6cc;strokeColor=#d79b00;" vertex="1" parent="7"><mxGeometry x="44" y="200" width="10" height="40" as="geometry"/></mxCell><mxCell id="24" value="Spuštění kontroly" style="edgeStyle=orthogonalEdgeStyle;html=1;align=left;spacingLeft=2;endArrow=block;rounded=0;" edge="1" parent="7"><mxGeometry relative="1" as="geometry"><mxPoint x="54" y="180" as="sourcePoint"/><Array as="points"><mxPoint x="79" y="180"/><mxPoint x="79" y="210"/><mxPoint x="54" y="210"/></Array><mxPoint x="54" y="210" as="targetPoint"/></mxGeometry></mxCell><mxCell id="32" value="" style="html=1;points=[];perimeter=orthogonalPerimeter;fillColor=#ffe6cc;strokeColor=#d79b00;" vertex="1" parent="7"><mxGeometry x="44" y="250" width="10" height="120" as="geometry"/></mxCell><mxCell id="33" value="Vytvoření&lt;br&gt;Docker image" style="edgeStyle=orthogonalEdgeStyle;html=1;align=left;spacingLeft=2;endArrow=block;rounded=0;" edge="1" parent="7"><mxGeometry relative="1" as="geometry"><mxPoint x="54" y="230" as="sourcePoint"/><Array as="points"><mxPoint x="79" y="230"/><mxPoint x="79" y="260"/><mxPoint x="54" y="260"/></Array><mxPoint x="54" y="260" as="targetPoint"/></mxGeometry></mxCell><mxCell id="9" value="Odevzdání řešení" style="html=1;verticalAlign=bottom;endArrow=block;entryX=0;entryY=0;rounded=0;" edge="1" parent="1"><mxGeometry relative="1" as="geometry"><mxPoint x="69.81034482758616" y="130" as="sourcePoint"/><mxPoint x="195" y="130" as="targetPoint"/></mxGeometry></mxCell><mxCell id="16" value="Nahrání řešení" style="html=1;verticalAlign=bottom;endArrow=block;entryX=0;entryY=0;rounded=0;" edge="1" parent="1"><mxGeometry relative="1" as="geometry"><mxPoint x="206" y="130" as="sourcePoint"/><mxPoint x="344" y="130" as="targetPoint"/></mxGeometry></mxCell><mxCell id="25" value="Docker" style="shape=umlLifeline;perimeter=lifelinePerimeter;whiteSpace=wrap;html=1;container=1;collapsible=0;recursiveResize=0;outlineConnect=0;fillColor=#ffe6cc;strokeColor=#d79b00;" vertex="1" parent="1"><mxGeometry x="460" y="50" width="100" height="390" as="geometry"/></mxCell><mxCell id="34" value="" style="html=1;points=[];perimeter=orthogonalPerimeter;fillColor=#ffe6cc;strokeColor=#d79b00;" vertex="1" parent="25"><mxGeometry x="45" y="270" width="10" height="50" as="geometry"/></mxCell><mxCell id="36" value="" style="html=1;points=[];perimeter=orthogonalPerimeter;fillColor=#ffe6cc;strokeColor=#d79b00;" vertex="1" parent="25"><mxGeometry x="45" y="330" width="10" height="20" as="geometry"/></mxCell><mxCell id="37" value="Kontrola řešení" style="edgeStyle=orthogonalEdgeStyle;html=1;align=left;spacingLeft=2;endArrow=block;rounded=0;entryX=1;entryY=0;" edge="1" target="36" parent="25"><mxGeometry relative="1" as="geometry"><mxPoint x="55" y="310" as="sourcePoint"/><Array as="points"><mxPoint x="80" y="310"/></Array></mxGeometry></mxCell><mxCell id="39" value="Nahrání výsledků" style="html=1;verticalAlign=bottom;endArrow=open;dashed=1;endSize=8;rounded=0;" edge="1" parent="25"><mxGeometry relative="1" as="geometry"><mxPoint x="45" y="340" as="sourcePoint"/><mxPoint x="-108" y="340" as="targetPoint"/></mxGeometry></mxCell><mxCell id="35" value="Spuštění kontejneru" style="html=1;verticalAlign=bottom;endArrow=block;rounded=0;" edge="1" parent="1" target="25"><mxGeometry width="80" relative="1" as="geometry"><mxPoint x="353" y="340" as="sourcePoint"/><mxPoint x="440" y="340" as="targetPoint"/></mxGeometry></mxCell></root></mxGraphModel></diagram></mxfile>